<svg xmlns="http://www.w3.org/2000/svg" viewBox="0 0 320 320" width="320" height="320" role="img" aria-label="Green Garden garden bed">
<!-- RawLife Garden — Green Garden bed. Demo state shown: harvesting. All growth-state groups are present; visibility is toggled via the display style on each named group per the growth-stage visibility matrix. -->
<g id="bed_greens_container">
<g id="bed_greens_soil"><path d="M 55.0,260.0 Q 55.0,234.0 118.0,234.0 Q 160.0,230.1 202.0,234.0 Q 265.0,234.0 265.0,260.0 Z" fill="#6B5842"/></g>
<g id="bed_greens_boundary"><path d="M 48.0,260.0 Q 160.0,261.8 272.0,260.0" stroke="#52432F" stroke-width="2" fill="none" opacity="0.5" stroke-linecap="round"/></g>
<g id="bed_greens_seed" style="display:none;"><circle cx="160" cy="254" r="5" fill="#3F7D5C"/><ellipse cx="160" cy="258" rx="9" ry="3" fill="#E8DCC8" opacity="0.6"/></g>
<g id="bed_greens_sprout_stem" style="display:inline;"><path d="M 160.0,256.0 Q 162.4,241.0 166.0,226.0" stroke="#3F7D5C" stroke-width="3" fill="none" stroke-linecap="round"/></g>
<g id="bed_greens_sprout_leaf_left" style="display:inline;"><path d="M 166.0,226.0 Q 155.6,221.6 152.5,208.7 Q 164.2,214.8 166.0,226.0 Z" fill="#A9D1AE" opacity="1.0"/><path d="M 166.0,226.0 L 152.5,208.7" stroke="#A9D1AE" stroke-opacity="0.35" stroke-width="1" fill="none"/></g>
<g id="bed_greens_sprout_leaf_right" style="display:inline;"><path d="M 166.0,226.0 Q 167.8,214.8 179.5,208.7 Q 176.4,221.6 166.0,226.0 Z" fill="#A9D1AE" opacity="1.0"/><path d="M 166.0,226.0 L 179.5,208.7" stroke="#A9D1AE" stroke-opacity="0.35" stroke-width="1" fill="none"/></g>
<g id="bed_greens_growing_layer_01" style="display:inline;"><path d="M 160.0,234.0 Q 136.7,231.1 122.3,207.6 Q 149.4,213.1 160.0,234.0 Z" fill="#6FA97D" opacity="1.0"/><path d="M 160.0,234.0 L 122.3,207.6" stroke="#6FA97D" stroke-opacity="0.35" stroke-width="1" fill="none"/><path d="M 160.0,234.0 Q 143.1,217.7 145.8,190.3 Q 164.1,210.9 160.0,234.0 Z" fill="#6FA97D" opacity="1.0"/><path d="M 160.0,234.0 L 145.8,190.3" stroke="#6FA97D" stroke-opacity="0.35" stroke-width="1" fill="none"/><path d="M 160.0,234.0 Q 155.9,210.9 174.2,190.3 Q 176.9,217.7 160.0,234.0 Z" fill="#6FA97D" opacity="1.0"/><path d="M 160.0,234.0 L 174.2,190.3" stroke="#6FA97D" stroke-opacity="0.35" stroke-width="1" fill="none"/><path d="M 160.0,234.0 Q 170.6,213.1 197.7,207.6 Q 183.3,231.1 160.0,234.0 Z" fill="#6FA97D" opacity="1.0"/><path d="M 160.0,234.0 L 197.7,207.6" stroke="#6FA97D" stroke-opacity="0.35" stroke-width="1" fill="none"/></g>
<g id="bed_greens_growing_layer_02" style="display:inline;"><path d="M 160.0,226.0 Q 140.0,231.0 121.4,215.6 Q 145.2,211.7 160.0,226.0 Z" fill="#A9D1AE" opacity="1.0"/><path d="M 160.0,226.0 L 121.4,215.6" stroke="#A9D1AE" stroke-opacity="0.35" stroke-width="1" fill="none"/><path d="M 160.0,226.0 Q 141.5,217.0 137.1,193.2 Q 157.9,205.5 160.0,226.0 Z" fill="#A9D1AE" opacity="1.0"/><path d="M 160.0,226.0 L 137.1,193.2" stroke="#A9D1AE" stroke-opacity="0.35" stroke-width="1" fill="none"/><path d="M 160.0,226.0 Q 162.1,205.5 182.9,193.2 Q 178.5,217.0 160.0,226.0 Z" fill="#A9D1AE" opacity="1.0"/><path d="M 160.0,226.0 L 182.9,193.2" stroke="#A9D1AE" stroke-opacity="0.35" stroke-width="1" fill="none"/><path d="M 160.0,226.0 Q 174.8,211.7 198.6,215.6 Q 180.0,231.0 160.0,226.0 Z" fill="#A9D1AE" opacity="1.0"/><path d="M 160.0,226.0 L 198.6,215.6" stroke="#A9D1AE" stroke-opacity="0.35" stroke-width="1" fill="none"/></g>
<g id="bed_greens_harvest_layer_01" style="display:inline;"><path d="M 160.0,230.0 Q 133.9,243.0 102.0,230.0 Q 133.9,217.0 160.0,230.0 Z" fill="#3F7D5C" opacity="1.0"/><path d="M 160.0,230.0 L 102.0,230.0" stroke="#3F7D5C" stroke-opacity="0.35" stroke-width="1" fill="none"/><path d="M 160.0,230.0 Q 131.7,223.2 115.6,192.7 Q 148.4,203.3 160.0,230.0 Z" fill="#3F7D5C" opacity="1.0"/><path d="M 160.0,230.0 L 115.6,192.7" stroke="#3F7D5C" stroke-opacity="0.35" stroke-width="1" fill="none"/><path d="M 160.0,230.0 Q 141.9,207.2 147.9,173.3 Q 167.3,201.8 160.0,230.0 Z" fill="#3F7D5C" opacity="1.0"/><path d="M 160.0,230.0 L 147.9,173.3" stroke="#3F7D5C" stroke-opacity="0.35" stroke-width="1" fill="none"/><path d="M 160.0,230.0 Q 152.7,201.8 172.1,173.3 Q 178.1,207.2 160.0,230.0 Z" fill="#3F7D5C" opacity="1.0"/><path d="M 160.0,230.0 L 172.1,173.3" stroke="#3F7D5C" stroke-opacity="0.35" stroke-width="1" fill="none"/><path d="M 160.0,230.0 Q 171.6,203.3 204.4,192.7 Q 188.3,223.2 160.0,230.0 Z" fill="#3F7D5C" opacity="1.0"/><path d="M 160.0,230.0 L 204.4,192.7" stroke="#3F7D5C" stroke-opacity="0.35" stroke-width="1" fill="none"/><path d="M 160.0,230.0 Q 186.1,217.0 218.0,230.0 Q 186.1,243.0 160.0,230.0 Z" fill="#3F7D5C" opacity="1.0"/><path d="M 160.0,230.0 L 218.0,230.0" stroke="#3F7D5C" stroke-opacity="0.35" stroke-width="1" fill="none"/></g>
<g id="bed_greens_harvest_layer_02" style="display:inline;"><path d="M 160.0,218.0 Q 141.4,205.9 138.0,179.9 Q 158.8,195.9 160.0,218.0 Z" fill="#6FA97D" opacity="1.0"/><path d="M 160.0,218.0 L 138.0,179.9" stroke="#6FA97D" stroke-opacity="0.35" stroke-width="1" fill="none"/><path d="M 160.0,218.0 Q 150.0,198.2 160.0,174.0 Q 170.0,198.2 160.0,218.0 Z" fill="#6FA97D" opacity="1.0"/><path d="M 160.0,218.0 L 160.0,174.0" stroke="#6FA97D" stroke-opacity="0.35" stroke-width="1" fill="none"/><path d="M 160.0,218.0 Q 161.2,195.9 182.0,179.9 Q 178.6,205.9 160.0,218.0 Z" fill="#6FA97D" opacity="1.0"/><path d="M 160.0,218.0 L 182.0,179.9" stroke="#6FA97D" stroke-opacity="0.35" stroke-width="1" fill="none"/></g>
<g id="bed_greens_flourishing_layer_01" style="display:none;"><path d="M 160.0,226.0 Q 134.9,247.2 96.2,243.1 Q 127.7,220.2 160.0,226.0 Z" fill="#3F7D5C" opacity="1.0"/><path d="M 160.0,226.0 L 96.2,243.1" stroke="#3F7D5C" stroke-opacity="0.35" stroke-width="1" fill="none"/><path d="M 160.0,226.0 Q 127.2,226.1 100.2,198.1 Q 139.0,200.8 160.0,226.0 Z" fill="#3F7D5C" opacity="1.0"/><path d="M 160.0,226.0 L 100.2,198.1" stroke="#3F7D5C" stroke-opacity="0.35" stroke-width="1" fill="none"/><path d="M 160.0,226.0 Q 134.8,205.0 132.1,166.2 Q 160.1,193.2 160.0,226.0 Z" fill="#3F7D5C" opacity="1.0"/><path d="M 160.0,226.0 L 132.1,166.2" stroke="#3F7D5C" stroke-opacity="0.35" stroke-width="1" fill="none"/><path d="M 160.0,226.0 Q 159.9,193.2 187.9,166.2 Q 185.2,205.0 160.0,226.0 Z" fill="#3F7D5C" opacity="1.0"/><path d="M 160.0,226.0 L 187.9,166.2" stroke="#3F7D5C" stroke-opacity="0.35" stroke-width="1" fill="none"/><path d="M 160.0,226.0 Q 181.0,200.8 219.8,198.1 Q 192.8,226.1 160.0,226.0 Z" fill="#3F7D5C" opacity="1.0"/><path d="M 160.0,226.0 L 219.8,198.1" stroke="#3F7D5C" stroke-opacity="0.35" stroke-width="1" fill="none"/><path d="M 160.0,226.0 Q 192.3,220.2 223.8,243.1 Q 185.1,247.2 160.0,226.0 Z" fill="#3F7D5C" opacity="1.0"/><path d="M 160.0,226.0 L 223.8,243.1" stroke="#3F7D5C" stroke-opacity="0.35" stroke-width="1" fill="none"/></g>
<g id="bed_greens_flourishing_layer_02" style="display:none;"><path d="M 160.0,210.0 Q 146.4,194.1 149.1,169.4 Q 163.8,189.4 160.0,210.0 Z" fill="#A9D1AE" opacity="1.0"/><path d="M 160.0,210.0 L 149.1,169.4" stroke="#A9D1AE" stroke-opacity="0.35" stroke-width="1" fill="none"/><path d="M 160.0,210.0 Q 156.2,189.4 170.9,169.4 Q 173.6,194.1 160.0,210.0 Z" fill="#A9D1AE" opacity="1.0"/><path d="M 160.0,210.0 L 170.9,169.4" stroke="#A9D1AE" stroke-opacity="0.35" stroke-width="1" fill="none"/></g>
<g id="bed_greens_blossoms" style="display:none;"><circle cx="130.0" cy="175.6" r="2.2" fill="#F2C14E"/><circle cx="134.2" cy="178.6" r="2.2" fill="#F2C14E"/><circle cx="132.6" cy="183.6" r="2.2" fill="#F2C14E"/><circle cx="127.4" cy="183.6" r="2.2" fill="#F2C14E"/><circle cx="125.8" cy="178.6" r="2.2" fill="#F2C14E"/><circle cx="130.0" cy="180.0" r="1.6" fill="#F2C14E"/><circle cx="188.0" cy="171.6" r="2.2" fill="#F2C14E"/><circle cx="192.2" cy="174.6" r="2.2" fill="#F2C14E"/><circle cx="190.6" cy="179.6" r="2.2" fill="#F2C14E"/><circle cx="185.4" cy="179.6" r="2.2" fill="#F2C14E"/><circle cx="183.8" cy="174.6" r="2.2" fill="#F2C14E"/><circle cx="188.0" cy="176.0" r="1.6" fill="#F2C14E"/></g>
<g id="bed_greens_highlight" style="display:none"><circle cx="160.0" cy="242.0" r="70.0" fill="#F5D98B" opacity="0.35"/></g>
<g id="bed_greens_touch_region"><rect x="0" y="0" width="320" height="320" fill="transparent"/></g>
</g>
</svg>
