<svg xmlns="http://www.w3.org/2000/svg" viewBox="0 0 840 120" width="840" height="120" role="img" aria-label="RawLife Garden produce-color markers">
<!-- Six produce-color markers, in order: green, red, orange, yellow, purple, tan.
     Each marker_[key]_container holds three mutually-exclusive states
     (undiscovered / discovered / selected) as display-toggled groups.
     Discovered is shown by default here. Pair every marker with a native
     text label outside the SVG — do not rely on hue alone. -->
<g id="marker_green_container" transform="translate(0,0)"><g id="marker_green_undiscovered" style="display:none"><circle cx="70" cy="60" r="30" fill="none" stroke="#DDD6C7" stroke-width="2" stroke-dasharray="4 4"/><path d="M 70.0,74.0 Q 63.0,62.3 70.0,48.0 Q 77.0,62.3 70.0,74.0 Z" fill="none" opacity="1.0" stroke="#C9C2B0" stroke-width="3"/><path d="M 70.0,74.0 L 70.0,48.0" stroke="none" stroke-opacity="0.35" stroke-width="1" fill="none"/></g><g id="marker_green_discovered" style="display:inline"><circle cx="70" cy="60" r="30" fill="#FFFFFF"/><path d="M 70.0,74.0 Q 63.0,62.3 70.0,48.0 Q 77.0,62.3 70.0,74.0 Z" fill="#4C7A55" opacity="1.0"/><path d="M 70.0,74.0 L 70.0,48.0" stroke="#4C7A55" stroke-opacity="0.35" stroke-width="1" fill="none"/></g><g id="marker_green_selected" style="display:none"><circle cx="70" cy="60" r="34" fill="none" stroke="#4C7A55" stroke-width="3"/><circle cx="70" cy="60" r="30" fill="#FFFFFF"/><path d="M 70.0,74.0 Q 63.0,62.3 70.0,48.0 Q 77.0,62.3 70.0,74.0 Z" fill="#4C7A55" opacity="1.0"/><path d="M 70.0,74.0 L 70.0,48.0" stroke="#4C7A55" stroke-opacity="0.35" stroke-width="1" fill="none"/></g></g>
<g id="marker_red_container" transform="translate(140,0)"><g id="marker_red_undiscovered" style="display:none"><circle cx="70" cy="60" r="30" fill="none" stroke="#DDD6C7" stroke-width="2" stroke-dasharray="4 4"/><circle cx="70" cy="60" r="16" fill="none" stroke="#C9C2B0" stroke-width="3"/></g><g id="marker_red_discovered" style="display:inline"><circle cx="70" cy="60" r="30" fill="#FFFFFF"/><circle cx="70" cy="60" r="16" fill="#C4483A" stroke="none" stroke-width="3"/></g><g id="marker_red_selected" style="display:none"><circle cx="70" cy="60" r="34" fill="none" stroke="#C4483A" stroke-width="3"/><circle cx="70" cy="60" r="30" fill="#FFFFFF"/><circle cx="70" cy="60" r="16" fill="#C4483A" stroke="none" stroke-width="3"/></g></g>
<g id="marker_orange_container" transform="translate(280,0)"><g id="marker_orange_undiscovered" style="display:none"><circle cx="70" cy="60" r="30" fill="none" stroke="#DDD6C7" stroke-width="2" stroke-dasharray="4 4"/><path d="M 70,42 L 84,60 L 70,78 L 56,60 Z" fill="none" stroke="#C9C2B0" stroke-width="3"/></g><g id="marker_orange_discovered" style="display:inline"><circle cx="70" cy="60" r="30" fill="#FFFFFF"/><path d="M 70,42 L 84,60 L 70,78 L 56,60 Z" fill="#E8873A" stroke="none" stroke-width="3"/></g><g id="marker_orange_selected" style="display:none"><circle cx="70" cy="60" r="34" fill="none" stroke="#E8873A" stroke-width="3"/><circle cx="70" cy="60" r="30" fill="#FFFFFF"/><path d="M 70,42 L 84,60 L 70,78 L 56,60 Z" fill="#E8873A" stroke="none" stroke-width="3"/></g></g>
<g id="marker_yellow_container" transform="translate(420,0)"><g id="marker_yellow_undiscovered" style="display:none"><circle cx="70" cy="60" r="30" fill="none" stroke="#DDD6C7" stroke-width="2" stroke-dasharray="4 4"/><circle cx="70" cy="60" r="12" fill="none" stroke="#C9C2B0" stroke-width="3"/></g><g id="marker_yellow_discovered" style="display:inline"><circle cx="70" cy="60" r="30" fill="#FFFFFF"/><circle cx="70" cy="60" r="12" fill="#F2C14E" stroke="none" stroke-width="3"/><line x1="88.0" y1="60.0" x2="96.0" y2="60.0" stroke="#F2C14E" stroke-width="3" stroke-linecap="round"/><line x1="82.7" y1="72.7" x2="88.4" y2="78.4" stroke="#F2C14E" stroke-width="3" stroke-linecap="round"/><line x1="70.0" y1="78.0" x2="70.0" y2="86.0" stroke="#F2C14E" stroke-width="3" stroke-linecap="round"/><line x1="57.3" y1="72.7" x2="51.6" y2="78.4" stroke="#F2C14E" stroke-width="3" stroke-linecap="round"/><line x1="52.0" y1="60.0" x2="44.0" y2="60.0" stroke="#F2C14E" stroke-width="3" stroke-linecap="round"/><line x1="57.3" y1="47.3" x2="51.6" y2="41.6" stroke="#F2C14E" stroke-width="3" stroke-linecap="round"/><line x1="70.0" y1="42.0" x2="70.0" y2="34.0" stroke="#F2C14E" stroke-width="3" stroke-linecap="round"/><line x1="82.7" y1="47.3" x2="88.4" y2="41.6" stroke="#F2C14E" stroke-width="3" stroke-linecap="round"/></g><g id="marker_yellow_selected" style="display:none"><circle cx="70" cy="60" r="34" fill="none" stroke="#F2C14E" stroke-width="3"/><circle cx="70" cy="60" r="30" fill="#FFFFFF"/><circle cx="70" cy="60" r="12" fill="#F2C14E" stroke="none" stroke-width="3"/><line x1="88.0" y1="60.0" x2="96.0" y2="60.0" stroke="#F2C14E" stroke-width="3" stroke-linecap="round"/><line x1="82.7" y1="72.7" x2="88.4" y2="78.4" stroke="#F2C14E" stroke-width="3" stroke-linecap="round"/><line x1="70.0" y1="78.0" x2="70.0" y2="86.0" stroke="#F2C14E" stroke-width="3" stroke-linecap="round"/><line x1="57.3" y1="72.7" x2="51.6" y2="78.4" stroke="#F2C14E" stroke-width="3" stroke-linecap="round"/><line x1="52.0" y1="60.0" x2="44.0" y2="60.0" stroke="#F2C14E" stroke-width="3" stroke-linecap="round"/><line x1="57.3" y1="47.3" x2="51.6" y2="41.6" stroke="#F2C14E" stroke-width="3" stroke-linecap="round"/><line x1="70.0" y1="42.0" x2="70.0" y2="34.0" stroke="#F2C14E" stroke-width="3" stroke-linecap="round"/><line x1="82.7" y1="47.3" x2="88.4" y2="41.6" stroke="#F2C14E" stroke-width="3" stroke-linecap="round"/></g></g>
<g id="marker_purple_container" transform="translate(560,0)"><g id="marker_purple_undiscovered" style="display:none"><circle cx="70" cy="60" r="30" fill="none" stroke="#DDD6C7" stroke-width="2" stroke-dasharray="4 4"/><circle cx="62" cy="56" r="8" fill="none" stroke="#C9C2B0" stroke-width="2"/><circle cx="78" cy="56" r="8" fill="none" stroke="#C9C2B0" stroke-width="2"/><circle cx="70" cy="70" r="8" fill="none" stroke="#C9C2B0" stroke-width="2"/></g><g id="marker_purple_discovered" style="display:inline"><circle cx="70" cy="60" r="30" fill="#FFFFFF"/><circle cx="70.0" cy="60.0" r="8.0" fill="#7C5295"/><circle cx="79.0" cy="56.4" r="8.0" fill="#7C5295"/><circle cx="61.0" cy="57.3" r="8.0" fill="#7C5295"/></g><g id="marker_purple_selected" style="display:none"><circle cx="70" cy="60" r="34" fill="none" stroke="#7C5295" stroke-width="3"/><circle cx="70" cy="60" r="30" fill="#FFFFFF"/><circle cx="70.0" cy="60.0" r="8.0" fill="#7C5295"/><circle cx="79.0" cy="56.4" r="8.0" fill="#7C5295"/><circle cx="61.0" cy="57.3" r="8.0" fill="#7C5295"/></g></g>
<g id="marker_tan_container" transform="translate(700,0)"><g id="marker_tan_undiscovered" style="display:none"><circle cx="70" cy="60" r="30" fill="none" stroke="#DDD6C7" stroke-width="2" stroke-dasharray="4 4"/><ellipse cx="70" cy="60" rx="10" ry="16" fill="none" stroke="#C9C2B0" stroke-width="3"/></g><g id="marker_tan_discovered" style="display:inline"><circle cx="70" cy="60" r="30" fill="#FFFFFF"/><ellipse cx="70" cy="60" rx="10" ry="16" fill="#B79C72" stroke="none" stroke-width="3"/></g><g id="marker_tan_selected" style="display:none"><circle cx="70" cy="60" r="34" fill="none" stroke="#B79C72" stroke-width="3"/><circle cx="70" cy="60" r="30" fill="#FFFFFF"/><ellipse cx="70" cy="60" rx="10" ry="16" fill="#B79C72" stroke="none" stroke-width="3"/></g></g>
</svg>
